<svg 
 xmlns="http://www.w3.org/2000/svg"
 xmlns:xlink="http://www.w3.org/1999/xlink"
 width="17px" height="28px">
<path fill-rule="evenodd" fill="currentColor"
 d="M11.902,27.329 L0.631,16.064 C0.204,15.613 -0.010,15.087 -0.010,14.485 C-0.010,13.874 0.204,13.354 0.631,12.927 L11.902,1.642 C12.340,1.203 12.865,0.984 13.477,0.984 C14.100,0.984 14.620,1.205 15.035,1.642 L16.334,2.942 C16.772,3.359 16.992,3.879 16.992,4.502 C16.992,5.127 16.772,5.648 16.334,6.064 L7.936,14.485 L16.333,22.911 C16.772,23.326 16.992,23.846 16.992,24.471 C16.992,25.084 16.772,25.608 16.333,26.048 L15.035,27.347 C14.608,27.776 14.088,27.990 13.477,27.990 C12.865,27.990 12.340,27.769 11.902,27.329 Z"/>
</svg>