<svg 
 xmlns="http://www.w3.org/2000/svg"
 xmlns:xlink="http://www.w3.org/1999/xlink"
 width="21px" height="16px">
<path fill-rule="evenodd" fill="currentColor"
 d="M19.250,-0.000 L1.750,-0.000 C0.785,-0.000 -0.000,0.796 -0.000,1.777 L-0.000,14.221 C-0.000,15.201 0.785,15.999 1.750,15.999 L19.250,15.999 C20.215,15.999 20.1000,15.201 20.1000,14.221 L20.1000,1.777 C20.1000,0.796 20.215,-0.000 19.250,-0.000 ZM1.750,0.888 L19.250,0.888 C19.314,0.888 19.371,0.912 19.432,0.925 C17.917,2.334 12.893,7.002 11.135,8.612 C10.997,8.738 10.775,8.888 10.500,8.888 C10.224,8.888 10.003,8.738 9.865,8.612 C8.107,7.002 3.083,2.334 1.568,0.925 C1.628,0.912 1.685,0.888 1.750,0.888 ZM0.875,14.221 L0.875,1.777 C0.875,1.690 0.901,1.610 0.924,1.531 C2.083,2.609 5.589,5.867 7.862,7.967 C5.596,9.944 2.090,13.321 0.921,14.453 C0.900,14.377 0.875,14.303 0.875,14.221 ZM19.250,15.110 L1.750,15.110 C1.680,15.110 1.618,15.085 1.553,15.069 C2.760,13.900 6.289,10.503 8.515,8.569 C8.805,8.836 9.070,9.080 9.279,9.271 C9.639,9.602 10.061,9.777 10.500,9.777 C10.938,9.777 11.360,9.602 11.721,9.272 C11.929,9.081 12.195,8.836 12.485,8.569 C14.711,10.503 18.239,13.899 19.447,15.069 C19.382,15.085 19.320,15.110 19.250,15.110 ZM20.125,14.221 C20.125,14.303 20.099,14.377 20.079,14.453 C18.909,13.320 15.404,9.944 13.138,7.967 C15.411,5.867 18.916,2.609 20.076,1.531 C20.099,1.610 20.125,1.690 20.125,1.777 L20.125,14.221 Z"/>
</svg>