<svg 
 xmlns="http://www.w3.org/2000/svg"
 xmlns:xlink="http://www.w3.org/1999/xlink" viewBox="0 0 16 16">
<path fill-rule="evenodd" fill="currentColor"
 d="M15.638,12.659 L13.168,10.181 C12.676,9.690 11.861,9.706 11.352,10.215 L10.108,11.463 C10.029,11.420 9.948,11.373 9.862,11.326 C9.077,10.890 8.001,10.291 6.869,9.155 C5.734,8.018 5.136,6.937 4.700,6.150 C4.653,6.066 4.609,5.986 4.566,5.909 L5.401,5.073 L5.811,4.661 C6.322,4.149 6.336,3.333 5.845,2.840 L3.374,0.364 C2.884,-0.129 2.068,-0.113 1.558,0.397 L0.862,1.099 L0.881,1.119 C0.648,1.416 0.453,1.761 0.308,2.133 C0.174,2.486 0.091,2.824 0.052,3.162 C-0.274,5.872 0.962,8.349 4.315,11.711 C8.951,16.359 12.686,16.008 12.848,15.991 C13.199,15.949 13.535,15.864 13.877,15.732 C14.244,15.586 14.588,15.393 14.885,15.159 L14.900,15.172 L15.605,14.480 C16.115,13.969 16.129,13.151 15.638,12.659 Z"/>
</svg>