<svg 
 xmlns="http://www.w3.org/2000/svg"
 xmlns:xlink="http://www.w3.org/1999/xlink" viewBox="0 0 20 20">
<path fill-rule="evenodd" fill="currentColor"
 d="M9.1000,19.998 C4.486,19.998 -0.000,15.513 -0.000,9.999 C-0.000,4.484 4.486,-0.001 9.1000,-0.001 C15.514,-0.001 19.1000,4.484 19.1000,9.999 C19.1000,15.513 15.514,19.998 9.1000,19.998 ZM9.1000,1.458 C5.291,1.458 1.460,5.290 1.460,9.999 C1.460,14.708 5.291,18.539 9.1000,18.539 C14.709,18.539 18.540,14.708 18.540,9.999 C18.540,5.290 14.709,1.458 9.1000,1.458 ZM13.406,11.458 L9.513,11.458 C9.110,11.458 8.783,11.132 8.783,10.729 L8.783,5.619 C8.783,5.216 9.110,4.889 9.513,4.889 C9.916,4.889 10.243,5.216 10.243,5.619 L10.243,9.999 L13.406,9.999 C13.809,9.999 14.136,10.325 14.136,10.729 C14.136,11.132 13.809,11.458 13.406,11.458 Z"/>
</svg>