<svg height="512pt" viewBox="-19 0 512 512" width="512pt" xmlns="http://www.w3.org/2000/svg"><path d="m188.429688 63.429688c3.109374 0 4.554687 3.332031 4.554687 6.441406 0 3.441406-1.667969 6.550781-4.554687 6.550781h-16.210938v63.636719c0 2.996094-3.667969 4.550781-7.21875 4.550781-3.664062 0-7.21875-1.554687-7.21875-4.550781v-63.636719h-16.328125c-2.886719 0-4.550781-2.996094-4.550781-6.550781 0-3.109375 1.445312-6.441406 4.550781-6.441406zm0 0" fill="#0b3599"/><path d="m338.480469 68.832031h-98.660157c-4.140624 0-7.5 3.355469-7.5 7.5 0 4.140625 3.359376 7.5 7.5 7.5h98.660157c4.144531 0 7.5-3.359375 7.5-7.5 0-4.144531-3.355469-7.5-7.5-7.5zm0 0" fill="#0b3599"/><path d="m338.480469 127.621094h-98.660157c-4.140624 0-7.5 3.359375-7.5 7.5s3.359376 7.5 7.5 7.5h98.660157c4.144531 0 7.5-3.359375 7.5-7.5s-3.355469-7.5-7.5-7.5zm0 0" fill="#0b3599"/><path d="m338.480469 186.410156h-202.910157c-4.144531 0-7.5 3.359375-7.5 7.5 0 4.144532 3.355469 7.5 7.5 7.5h202.910157c4.144531 0 7.5-3.355468 7.5-7.5 0-4.140625-3.355469-7.5-7.5-7.5zm0 0" fill="#0b3599"/><path d="m239.820312 245.203125h-104.25c-4.144531 0-7.5 3.359375-7.5 7.5s3.355469 7.5 7.5 7.5h104.25c4.144532 0 7.5-3.359375 7.5-7.5s-3.355468-7.5-7.5-7.5zm0 0" fill="#0b3599"/><path d="m40.835938 321.554688v-228.152344h26.808593c4.140625 0 7.5-3.355469 7.5-7.5 0-4.140625-3.359375-7.5-7.5-7.5h-34.308593c-4.140626 0-7.5 3.359375-7.5 7.5v243.152344c0 4.140624 3.359374 7.5 7.5 7.5h406.964843c4.144531 0 7.5-3.359376 7.5-7.5v-243.152344c0-4.140625-3.355469-7.5-7.5-7.5h-34.308593c-4.140626 0-7.5 3.359375-7.5 7.5 0 4.144531 3.359374 7.5 7.5 7.5h26.808593v228.152344h-49.304687v-303.765626c0-9.808593-7.980469-17.789062-17.792969-17.789062h-257.769531c-9.808594 0-17.789063 7.980469-17.789063 17.789062v303.765626zm64.308593-303.765626c0-1.535156 1.25-2.789062 2.789063-2.789062h257.773437c1.539063 0 2.789063 1.253906 2.789063 2.789062v303.765626h-263.351563zm0 0" fill="#0b3599"/><path d="m448.316406 51.644531h-42.320312c-4.144532 0-7.5 3.355469-7.5 7.5 0 4.140625 3.355468 7.5 7.5 7.5h42.320312c5.691406 0 10.324219 4.628907 10.324219 10.324219v272.269531h-443.640625v-272.269531c0-5.695312 4.628906-10.324219 10.324219-10.324219h42.320312c4.140625 0 7.5-3.359375 7.5-7.5 0-4.144531-3.359375-7.5-7.5-7.5h-42.320312c-13.964844 0-25.324219 11.359375-25.324219 25.324219v313.363281c0 13.964844 11.359375 25.324219 25.324219 25.324219h173.351562c-4.054687 17.945312-10.875 34.695312-20.351562 49.945312h-11.132813c-17.3125 0-31.394531 14.085938-31.394531 31.398438 0 8.273438 6.726563 15 14.996094 15h172.054687c8.269532 0 15-6.730469 15-15 0-17.3125-14.085937-31.398438-31.398437-31.398438h-11.132813c-9.472656-15.25-16.296875-32-20.347656-49.945312h173.347656c13.964844 0 25.324219-11.359375 25.324219-25.324219v-313.363281c0-13.964844-11.359375-25.324219-25.324219-25.324219zm-125.460937 445.355469s-.003907 0-.007813 0h-172.054687c0-9.039062 7.355469-16.398438 16.398437-16.398438h15.121094c.039062 0 .074219.003907.113281.003907.019531 0 .042969-.003907.0625-.003907h108.664063c.019531 0 .042968.003907.0625.003907.039062 0 .074218 0 .113281-.003907h15.121094c9.039062 0 16.398437 7.359376 16.40625 16.398438zm-44.914063-31.398438h-82.242187c8.511719-15.460937 14.648437-32.191406 18.320312-49.945312h45.601563c3.671875 17.753906 9.808594 34.484375 18.320312 49.945312zm170.375-64.945312h-182.367187c-.082031 0-.160157 0-.242188 0h-57.835937c-.050782 0-.105469 0-.15625 0h-182.390625c-5.691407 0-10.324219-4.632812-10.324219-10.324219v-26.09375h443.640625v26.09375c0 5.691407-4.632813 10.324219-10.324219 10.324219zm0 0" fill="#0b3599"/></svg>