<svg xmlns="http://www.w3.org/2000/svg" viewBox="0 0 512 512" width="512" height="512"><path d="M253.98,159.833a56.592,56.592,0,0,0-56.528,56.527v25.264a56.528,56.528,0,0,0,113.055,0V216.36A56.591,56.591,0,0,0,253.98,159.833Zm44.527,81.791a44.528,44.528,0,0,1-89.055,0V216.36a44.528,44.528,0,0,1,89.055,0Z" fill="#0b3599"/><path d="M160.177,456.056H347.783a6,6,0,0,0,6-6V430.792h130.1a6,6,0,0,0,6-6V375.03a55.807,55.807,0,0,0-52.269-55.656c-3.2-.237-4.791,1.708-6.476,3.764A36.846,36.846,0,0,1,373,321.716a6.005,6.005,0,0,0-4.975-2.433,55.163,55.163,0,0,0-28.6,8.744A62.75,62.75,0,0,0,294.73,305.2c-3.139-.173-4.639,1.674-6.546,4a42.948,42.948,0,0,1-67.767-1.658,6.059,6.059,0,0,0-4.975-2.433,62.513,62.513,0,0,0-43.373,18.919c-1.279,1.31-2.484,2.673-3.634,4.072a55.4,55.4,0,0,0-26.612-8.724c-3.2-.237-4.79,1.708-6.476,3.764a36.845,36.845,0,0,1-58.137-1.422,6.019,6.019,0,0,0-4.976-2.433A55.776,55.776,0,0,0,17.879,375.03v49.762a6,6,0,0,0,6,6h130.3v19.264A6,6,0,0,0,160.177,456.056ZM365.4,331.447a48.85,48.85,0,0,0,74.28.169,43.82,43.82,0,0,1,38.2,43.414v43.762h-124.1V367.941a62.492,62.492,0,0,0-7.64-29.97A43.145,43.145,0,0,1,365.4,331.447ZM212.8,317.261a54.953,54.953,0,0,0,84.139.177,50.917,50.917,0,0,1,44.845,50.5v76.115H166.177V367.941a50.871,50.871,0,0,1,46.622-50.68ZM29.879,418.792V375.03a43.782,43.782,0,0,1,39.738-43.582,48.851,48.851,0,0,0,74.279.169,43.516,43.516,0,0,1,17.837,6.431,62.545,62.545,0,0,0-7.556,29.893v50.851Z" fill="#0b3599"/><path d="M452,264.463V242.35a50.227,50.227,0,1,0-100.454,0v22.113a50.227,50.227,0,0,0,100.454,0Zm-88.454,0V242.35a38.227,38.227,0,1,1,76.454,0v22.113a38.27,38.27,0,0,1-38.227,38.227h0A38.27,38.27,0,0,1,363.545,264.463Z" fill="#0b3599"/><path d="M156.213,264.463V242.35a50.227,50.227,0,1,0-100.454,0v22.113a50.227,50.227,0,0,0,100.454,0Zm-88.454,0V242.35a38.227,38.227,0,1,1,76.454,0v22.113a38.27,38.27,0,0,1-38.227,38.227h0A38.27,38.27,0,0,1,67.759,264.463Z" fill="#0b3599"/><path d="M498.121,151.585v-62.5a23.165,23.165,0,0,0-23.139-23.139H317.873a23.165,23.165,0,0,0-23.139,23.139v62.5a23.165,23.165,0,0,0,23.139,23.139l6.97.015c4.033,22.388,18.75,29.6,22.5,31.089a6.056,6.056,0,0,0,3.645.6,6.245,6.245,0,0,0,5.119-4.72,33.093,33.093,0,0,0,.8-5.541c1.3-13.91,4.268-21.448,16.208-21.448H474.982A23.165,23.165,0,0,0,498.121,151.585Zm-12,0a11.152,11.152,0,0,1-11.139,11.139H373.11c-21.49,0-26.211,17.17-27.644,27.676-3.411-3.3-7.237-8.868-8.841-17.942a11.872,11.872,0,0,0-11.779-9.734h-6.973a11.152,11.152,0,0,1-11.139-11.139v-62.5a11.152,11.152,0,0,1,11.139-11.139H474.982a11.152,11.152,0,0,1,11.139,11.139Z" fill="#0b3599"/><path d="M194.127,55.944H37.018A23.165,23.165,0,0,0,13.879,79.083v72.5a23.165,23.165,0,0,0,23.139,23.139l102.97.015c4.033,22.385,18.746,29.6,22.5,31.088a6.053,6.053,0,0,0,3.646.606,6.243,6.243,0,0,0,5.12-4.72c.627-2.24.446-4.894.216-8.252-.367-5.355-.868-12.687,2.341-16.123,1.62-1.734,4.462-2.614,8.447-2.614h11.872a23.165,23.165,0,0,0,23.139-23.139v-72.5A23.165,23.165,0,0,0,194.127,55.944Zm11.139,95.641a11.152,11.152,0,0,1-11.139,11.139H182.255c-7.444,0-13.236,2.161-17.217,6.423-5.241,5.612-5.981,13.333-5.822,19.839-3.006-3.392-6.049-8.624-7.445-16.528a11.873,11.873,0,0,0-11.779-9.734H37.018a11.152,11.152,0,0,1-11.139-11.139v-72.5A11.152,11.152,0,0,1,37.018,67.944H194.127a11.152,11.152,0,0,1,11.139,11.139Z" fill="#0b3599"/></svg>
