<svg height="498pt" viewBox="0 -1 498.248 498" width="498pt" xmlns="http://www.w3.org/2000/svg" fill="#fff"><path d="m483.089844 368.125-22.496094-48h11.40625v-16h-81.136719c-1.261719-4.871094-3.648437-9.265625-6.863281-12.945312v-38.367188l-24-24-24 24v38.367188c-3.214844 3.679687-5.601562 8.074218-6.863281 12.945312h-41.136719v-32c8.824219 0 16-7.175781 16-16v-16c0-8.824219-7.175781-16-16-16h-40v-9.824219c0-16.585937-10.433594-31.632812-25.953125-37.457031l-38.046875-14.265625v-6.773437c6.054688-5.433594 10.71875-12.359376 13.398438-20.226563 15.074218-2.582031 26.601562-15.664063 26.601562-31.453125v-32c0-39.695312-32.296875-72-72-72s-72 32.304688-72 72v32c0 15.789062 11.527344 28.871094 26.601562 31.453125 2.679688 7.859375 7.34375 14.785156 13.398438 20.226563v6.773437l-38.039062 14.273437c-15.527344 5.816407-25.960938 20.863282-25.960938 37.449219v9.824219h-40c-8.824219 0-16 7.175781-16 16v16c0 8.824219 7.175781 16 16 16v176h272v-32h22.246094l12-48h-15.167969l-22.492187-48h44.550781c1.261719 4.871094 3.648437 9.261719 6.863281 12.941406v115.058594c-13.230469 0-24 10.765625-24 24v24h96v-24c0-13.234375-10.769531-24-24-24v-115.058594c3.214844-3.679687 5.601562-8.070312 6.863281-12.941406h44.550781l-22.492187 48h-15.167969l12 48h76.492188l12-48zm-123.089844-40c-8.824219 0-16-7.175781-16-16s7.175781-16 16-16 16 7.175781 16 16-7.175781 16-16 16zm0-76.6875 8 8v21.824219c-2.574219-.671875-5.222656-1.136719-8-1.136719s-5.425781.464844-8 1.136719v-21.824219zm-208-99.3125c-17.648438 0-32-14.351562-32-32v-32.570312c13.839844-1.269532 27.175781-5.613282 38.96875-13.152344l.0625.066406c6.777344 6.773438 15.59375 11.253906 24.96875 12.910156v32.746094c0 17.648438-14.351562 32-32 32zm48-34.226562v-27.542969c4.761719 2.777343 8 7.878906 8 13.777343 0 5.894532-3.238281 10.992188-8 13.765626zm-48-101.773438c30.871094 0 56 25.117188 56 56v4.445312c-4.726562-2.75-10.144531-4.445312-16-4.445312-8.0625 0-15.953125-3.273438-21.65625-8.96875l-9.328125-9.328125-9.488281 6.328125c-11.742188 7.824219-25.414063 11.96875-39.527344 11.96875-5.855469 0-11.273438 1.695312-16 4.445312v-4.445312c0-30.882812 25.128906-56 56-56zm-56 88c0-5.898438 3.238281-11 8-13.777344v27.542969c-4.761719-2.765625-8-7.871094-8-13.765625zm56 64c5.617188 0 10.984375-1.023438 16-2.800781v2.800781c0 8.824219-7.175781 16-16 16s-16-7.175781-16-16v-2.800781c5.015625 1.777343 10.382812 2.800781 16 2.800781zm-80 46.175781c0-9.953125 6.257812-18.976562 15.574219-22.472656l34.425781-12.914063c4.457031 12.328126 16.160156 21.210938 30 21.210938s25.542969-8.882812 29.992188-21.210938l34.433593 12.914063c9.316407 3.496094 15.574219 12.519531 15.574219 22.472656v9.824219h-160zm-56 25.824219h272l.015625 16h-272.015625zm256 192h-192v-112h128v-16h-144v128h-32v-160h240v32h-24v16h11.414062l-22.492187 48h-15.167969l12 48h38.246094zm25.753906-32h-51.507812l-4-16h59.507812zm-43.167968-32 17.414062-37.152344 17.414062 37.152344zm137.414062 104v8h-64v-8c0-4.417969 3.585938-8 8-8h48c4.414062 0 8 3.582031 8 8zm-40-24v-105.136719c2.574219.671875 5.222656 1.136719 8 1.136719s5.425781-.464844 8-1.136719v105.136719zm96-117.152344 17.414062 37.152344h-34.828124zm25.753906 69.152344h-51.507812l-4-16h59.507812zm0 0"/><path d="m96 336.125h112v16h-112zm0 0"/><path d="m96 368.125h112v16h-112zm0 0"/><path d="m96 400.125h112v16h-112zm0 0"/></svg>