<svg 
 xmlns="http://www.w3.org/2000/svg"
 xmlns:xlink="http://www.w3.org/1999/xlink"
 width="60px" height="82px">
<path fill-rule="evenodd" fill="#92222a"
 d="M30.000,0.000 C13.458,0.000 0.000,13.322 0.000,29.697 C0.000,50.018 26.847,79.851 27.990,81.111 C29.064,82.295 30.938,82.293 32.010,81.111 C33.153,79.851 59.1000,50.018 59.1000,29.697 C59.1000,13.322 46.542,0.000 30.000,0.000 ZM30.000,44.638 C21.677,44.638 14.906,37.935 14.906,29.697 C14.906,21.458 21.677,14.756 30.000,14.756 C38.323,14.756 45.093,21.458 45.093,29.697 C45.093,37.935 38.323,44.638 30.000,44.638 Z"/>
</svg>