<svg xmlns="http://www.w3.org/2000/svg" viewBox="0 0 64 64" width="512" height="512"><path d="M62,30H56a5,5,0,0,0-5,5v5.18A3,3,0,0,0,49,43v1h-.15a4,4,0,0,0-3.57,2.21s0,.07-.05.1L41.3,57H41a3,3,0,0,0-3,3v1H35V43H46a1,1,0,0,0,1-1V38a1,1,0,0,0-1-1H18a1,1,0,0,0-1,1v4a1,1,0,0,0,1,1H29V61H26V60a3,3,0,0,0-3-3h-.3L18.77,46.31l-.05-.1A4,4,0,0,0,15.15,44H15V43a3,3,0,0,0-2-2.82V35a5,5,0,0,0-5-5H2a1,1,0,0,0-1,1V53a1,1,0,0,0,1,1H4v7H1v2H63V61H60V54h2a1,1,0,0,0,1-1V31A1,1,0,0,0,62,30ZM51,43a1,1,0,0,1,1-1h3a1,1,0,0,0,1-1V37a1,1,0,0,1,2,0v7H51ZM40,60a1,1,0,0,1,1-1h5v2H40Zm8-1.84L50.72,50H51v3a1,1,0,0,0,1,1h2v7H48ZM19,39H45v2H19Zm12,4h2V61H31ZM24,60v1H18V59h5A1,1,0,0,1,24,60ZM12,54a1,1,0,0,0,1-1V50h.28L16,58.16V61H10V54Zm0-10H6V37a1,1,0,0,1,2,0v4a1,1,0,0,0,1,1h3a1,1,0,0,1,1,1v1ZM3,32H8a3,3,0,0,1,3,3v5H10V37a3,3,0,0,0-6,0v8a1,1,0,0,0,1,1H15.15a2,2,0,0,1,1.76,1.06L20.57,57H17.72L15,48.68A1,1,0,0,0,14,48H4a1,1,0,0,1-1-1V32ZM3,49.82A3,3,0,0,0,4,50h7v2H3ZM6,54H8v7H6Zm52,7H56V54h2Zm-5-9V50h7a3,3,0,0,0,1-.18V52Zm8-5a1,1,0,0,1-1,1H50a1,1,0,0,0-1,.68L46.28,57H43.43l3.66-9.94A2,2,0,0,1,48.85,46H59a1,1,0,0,0,1-1V37a3,3,0,0,0-6,0v3H53V35a3,3,0,0,1,3-3h5V47Z" fill="#0b3599"/><path d="M63,25a5,5,0,1,0-5,5A5,5,0,0,0,63,25Zm-5,3a3,3,0,1,1,3-3A3,3,0,0,1,58,28Z" fill="#0b3599"/><path d="M11,25a5,5,0,1,0-5,5A5,5,0,0,0,11,25ZM6,28a3,3,0,1,1,3-3A3,3,0,0,1,6,28Z" fill="#0b3599"/><path d="M16,23h4v3a1,1,0,0,0,.62.92A.84.84,0,0,0,21,27a1,1,0,0,0,.71-.29L25.41,23H36a3,3,0,0,0,3-3V19h1.59l3.7,3.71A1,1,0,0,0,45,23a.84.84,0,0,0,.38-.08A1,1,0,0,0,46,22V19h4a3,3,0,0,0,3-3V4a3,3,0,0,0-3-3H30a3,3,0,0,0-3,3V5H16a3,3,0,0,0-3,3V20A3,3,0,0,0,16,23ZM29,4a1,1,0,0,1,1-1H50a1,1,0,0,1,1,1V16a1,1,0,0,1-1,1H45a1,1,0,0,0-1,1v1.59l-2.29-2.3A1,1,0,0,0,41,17H39V8a3,3,0,0,0-3-3H29ZM15,8a1,1,0,0,1,1-1H36a1,1,0,0,1,1,1V20a1,1,0,0,1-1,1H25a1,1,0,0,0-.71.29L22,23.59V22a1,1,0,0,0-1-1H16a1,1,0,0,1-1-1Z" fill="#0b3599"/></svg>
