<?xml version="1.0" encoding="UTF-8"?><svg id="a" xmlns="http://www.w3.org/2000/svg" viewBox="0 0 712.41 712.41"><circle id="b" cx="356.15" cy="356.26" r="209.01" fill="#d8d8d8" stroke="#000" stroke-miterlimit="10" stroke-width=".75"/><circle id="c" cx="356.15" cy="356.26" r="275.38" fill="#fff" stroke="#001835" stroke-miterlimit="10" stroke-width="10"/><circle id="d" cx="356.15" cy="356.26" r="198.92" fill="none" stroke="#001835" stroke-miterlimit="10" stroke-width="4"/><circle id="e" cx="356.15" cy="356.26" r="264.71" fill="none" stroke="#001835" stroke-miterlimit="10" stroke-width="2"/><g id="f"><path d="M355.52,175.16c-56.72,45.21-147.36,42.63-147.36,42.63v176.97s26.53,101.28,147.36,151.47c120.82-50.18,147.36-151.47,147.36-151.47v-176.97s-90.63,2.58-147.36-42.63Z" fill="#001835" stroke="#d8d8d8" stroke-miterlimit="10" stroke-width="10"/><path d="M355.52,173.29c-57.3,45.67-148.84,43.06-148.84,43.06v178.75s26.8,102.31,148.84,153c122.04-50.69,148.84-153,148.84-153v-178.75s-91.55,2.61-148.84-43.06Z" fill="#001431" stroke="#000105" stroke-miterlimit="10" stroke-width="4"/><path d="M355.52,160.23c-61.29,48.85-159.21,46.06-159.21,46.06v191.2s28.67,109.43,159.21,163.65c130.54-54.22,159.21-163.65,159.21-163.65v-191.2s-97.92,2.79-159.21-46.06Z" fill="none" stroke="#d8d8d8" stroke-miterlimit="10" stroke-width="14"/><path d="M355.52,182.66c-54.43,43.38-141.4,40.9-141.4,40.9v169.82s25.46,97.19,141.4,145.35c115.94-48.16,141.4-145.35,141.4-145.35v-169.82s-86.97,2.48-141.4-40.9Z" fill="#001431" stroke="#d8d8d8" stroke-miterlimit="10" stroke-width="4"/></g><g id="g"><path d="M483.21,377.13l.11-.47c-.05.13-.14.25-.25.37-.15-.04-.33.11-.53.47-3.86,2.67-22.51,6.92-42.18,6.92-20.97,0-35.25-4.22-37.55-7.16-.67-.56-1.25-1.51-1.25-1.51l.06,3.67c.12,14.23,16.02,28.53,34.52,30.96,22.59,2.99,44.6-11.13,47.25-30.28.21-1.57.09-2.64-.17-2.97Z" fill="#fff"/><path d="M308.42,377.51l.11-.47c-.05.13-.14.25-.25.37-.15-.04-.33.11-.53.47-3.86,2.67-22.51,6.92-42.18,6.92-20.97,0-35.25-4.22-37.55-7.16-.67-.56-1.25-1.51-1.25-1.51l.06,3.67c.12,14.23,16.02,28.53,34.52,30.96,22.59,2.99,44.6-11.13,47.25-30.28.21-1.57.09-2.64-.17-2.97Z" fill="#fff"/><path d="M353.54,501.75c-.63-.28-3.46-1.36-6.34-2.43-11.81-4.46-14.18-6.04-12.91-8.36.81-1.53.98-1.69,4.96-4.91,2.82-2.26,3.05-2.65,3.86-6.5,1.15-5.48,1.67-12.71,1.15-16.61-.29-2.49-.81-3.56-2.3-5.14-2.71-2.82-2.59-4.52.58-7.57,1.44-1.36,2.82-3.11,3.17-3.95.86-2.32-.35-5.37-3-7.46l-2.25-1.75-10.08-.17c-9.33-.17-10.14-.11-11.01.9-4.15,4.63-11.47,3.22-13.43-2.54-.98-3.05.75-6.89,3.92-8.53,2.54-1.36,7.49-.4,9.33,1.75.69.85,2.3.96,12.91.96,6.68,0,11.93-.23,11.58-.45-.29-.28-3.05-1.58-6.11-2.99l-5.65-2.49v-4.52c0-9.04.58-47.57,1.73-80.21.87-34.86,4.23-56.58,6.05-66.32.46-2.94.69-5.54.46-5.87-.52-.85-9.85-.06-15.27,1.3-7.38,1.86-14.81,4.8-28.75,11.3-14.58,6.89-18.73,8.64-22.24,9.55l-2.42.68,1.38,2.94c1.33,2.71,21.21,48.81,25.41,58.86,1.44,3.5,7.7,19.5,9.55,23.79.38,1.32-2.59,2.35-3.46,2.64-.35.11-4.26-.11-4.61-1.13s-2.23-5.64-4.99-13.43c-7.84-22.14-11.18-31.63-13.89-39.26-5.94-17-9.39-26.21-9.39-25.14-.06.68.46,3.56,1.15,6.5,2.13,9.32,4.03,18.19,9.74,44.62,1.21,5.76,3.28,15.14,4.49,20.9,1.27,5.76,2.06,9.95,1.94,10.23-2.02.28-10.08,1.32-10.18.56-.17-1.35-1.15-8.99-5.76-42.43-.81-5.76-2.59-18.92-4.03-29.32-1.44-10.39-2.71-18.98-2.88-19.15-.12-.17-.35.06-.52.51-.12.45-.92,2.6-1.73,4.74-.75,2.2-2.59,7.29-4.09,11.3-1.44,4.07-3.75,10.39-5.19,14.12-1.38,3.73-4.38,11.86-6.63,18.08-4.03,11.13-8.07,22.14-10.6,28.81l-4.28,11.17-1.54-.56c-3.84-1.13-4.15-3.09-4.32-3.2-.23-.28,15.56-38.93,18.73-45.82.4-.9,1.27-2.94,1.9-4.52.63-1.53,2.02-4.97,3.17-7.63,1.09-2.65,3.4-8.25,5.19-12.43,1.73-4.18,3.98-9.49,4.96-11.69l1.73-4.12-2.02-2.03c-1.44-1.53-1.96-2.6-1.96-4.01,0-2.43,2.07-5.59,4.32-6.5,3.05-1.3,10.78-.56,13.54,1.24.75.51.63.73-.58,1.69-.81.68-2.36,1.69-3.46,2.32l-2.02,1.13,2.3-.28c3.8-.51,9.97-3.9,18.79-10.34,14.81-10.79,21.61-14.8,30.48-18.08,4.61-1.75,13.94-3.56,18.09-3.56h3.11l.4-2.65c.17-1.53.58-3.62.86-4.69s1.5-5.76,2.59-10.34c3.23-12.99,7.15-24.01,8.3-23.33,1.79,1.13,9.05,26.21,11.24,38.81l.35,2.03,5.07.34c9.74.73,19.02,3.67,28.35,9.09,5.07,2.88,8.47,5.2,19.3,13.16,6.8,5.03,14.18,8.92,17.86,9.49l2.3.4-2.88-1.69c-4.73-2.71-4.84-3.22-1.33-4.35,1.79-.62,4.84-1.07,7.2-1.07,3.86,0,4.32.11,5.94,1.64,2.54,2.37,3.34,5.42,2.13,7.85-.52,1.07-1.44,2.09-2.07,2.32-.69.17-1.21.56-1.21.85,0,.45,2.88,7.57,8.07,19.77,1.61,3.9,3.75,8.98,4.67,11.3.98,2.32,2.13,5.14,2.65,6.21s1.38,3.11,1.9,4.52c.58,1.41,2.19,5.37,3.63,8.76,5.7,13.73,9.05,21.75,11.29,27.06l3.08,9.25-2.3,1.55c-1.44.71-2.62.71-3.31.71-1.04,0-3.29-7.45-4.78-11.29-2.25-5.87-13.43-36.32-15.04-40.84-.63-1.86-1.79-5.03-2.54-7.06s-2.77-7.34-4.44-11.86c-5.19-14.29-5.88-15.93-6.34-15.42-.35.4-1.15,5.93-3.51,24.18-.23,2.2-.98,7.8-1.61,12.43-.63,4.69-2.59,19.26-4.32,32.42-1.79,13.16-3.11,22.56-3.23,22.67-.46.4-8.47-.07-9.51-.81-.98-.68-.98-1.07.4-7.46.81-3.67,3.57-16.38,6.11-28.19,2.59-11.81,5.19-23.89,5.88-26.83,1.27-5.65,3.86-17.74,4.44-20.62.92-4.58-.75-.11-11.64,30.79-1.73,4.8-4.67,13.22-6.63,18.64-1.96,5.42-4.96,13.84-6.63,18.64-4.49,12.77-3.98,12.13-4.61,12.3-.69.23-7.49-2.99-7.49-4.24,0-.45,2.59-6.09,3.98-9.31,2.71-6.16,14.18-33.1,18.79-43.95,1.5-3.56,5.24-12.31,8.3-19.43,3.05-7.12,5.53-12.99,5.53-13.05s-2.02-.85-4.44-1.69c-2.48-.85-10.6-4.41-18.04-7.91-15.85-7.46-21.95-9.89-29.39-11.86-6.17-1.58-15.73-2.49-16.36-1.53-.17.34.17,4.52.81,9.26,4.15,31.12,6.17,82.08,6.74,122.3l.35,25.53-1.38.56c-.75.28-3.46,1.47-5.99,2.71l-4.61,2.15,12.33.17c10.6.11,12.45,0,12.85-.73.75-1.3,3.63-2.54,5.82-2.54,2.3,0,5.53,1.98,6.57,3.95.4.79.75,2.49.75,3.84,0,6.38-9.16,9.32-13.25,4.24l-1.09-1.36-10.08.17c-11.18.17-11.81.4-14.64,4.46-2.02,2.88-1.44,5.14,2.19,8.59,3.46,3.39,3.75,5.03,1.15,7.46-2.13,2.03-2.88,4.46-2.88,9.6s1.5,14.86,2.54,16.38c.46.62,2.25,2.32,4.03,3.67,3.28,2.6,4.38,4.58,3.4,6.16-.75,1.13-6.45,3.9-13.48,6.44s-7.49,2.65-8.87,2.09ZM358.38,419.05l2.42-2.43-.35-18.3c-1.04-55.98-2.48-116.53-4.03-135.23-.46-5.59-.86-10.51-.86-10.96s-.17-.68-.35-.51c-1.61,1.64-4.15,60.89-5.19,122.52l-.4,42.7,2.54,2.32c1.38,1.3,2.82,2.37,3.11,2.37.35,0,1.73-1.13,3.11-2.49Z" fill="#fff"/></g><text transform="translate(280.7 563.06) rotate(-155.82)" fill="#141414" font-family="Marion-Regular, &apos;Marion Regular&apos;" font-size="39.88" stroke="#001835" stroke-miterlimit="10"><tspan x="0" y="0">М</tspan></text><text transform="translate(240.51 543.17) rotate(-145.67)" fill="#141414" font-family="Marion-Regular, &apos;Marion Regular&apos;" font-size="39.88" stroke="#001835" stroke-miterlimit="10"><tspan x="0" y="0">Е</tspan></text><text transform="translate(214.04 524.37) rotate(-135.56)" fill="#141414" font-family="Marion-Regular, &apos;Marion Regular&apos;" font-size="39.88" stroke="#001835" stroke-miterlimit="10"><tspan x="0" y="0">Ж</tspan></text><text transform="translate(183.25 491.91) rotate(-125.4)" fill="#141414" font-family="Marion-Regular, &apos;Marion Regular&apos;" font-size="39.88" stroke="#001835" stroke-miterlimit="10"><tspan x="0" y="0">Р</tspan></text><text transform="translate(164.32 463.49) rotate(-116.71)" fill="#141414" font-family="Marion-Regular, &apos;Marion Regular&apos;" font-size="39.88" stroke="#001835" stroke-miterlimit="10"><tspan x="0" y="0">Е</tspan></text><text transform="translate(150.57 433.87) rotate(-108.44)" fill="#141414" font-family="Marion-Regular, &apos;Marion Regular&apos;" font-size="39.88" stroke="#001835" stroke-miterlimit="10"><tspan x="0" y="0">Г</tspan></text><text transform="translate(141.66 405.03) rotate(-99.35)" fill="#141414" font-family="Marion-Regular, &apos;Marion Regular&apos;" font-size="39.88" stroke="#001835" stroke-miterlimit="10"><tspan x="0" y="0">И</tspan></text><text transform="translate(136.41 366.35) rotate(-89.03)" fill="#141414" font-family="Marion-Regular, &apos;Marion Regular&apos;" font-size="39.88" stroke="#001835" stroke-miterlimit="10"><tspan x="0" y="0">О</tspan></text><text transform="translate(138.3 326.14) rotate(-78.78)" fill="#141414" font-family="Marion-Regular, &apos;Marion Regular&apos;" font-size="39.88" stroke="#001835" stroke-miterlimit="10"><tspan x="0" y="0">Н</tspan></text><text transform="translate(147 288.3) rotate(-68.89)" fill="#141414" font-family="Marion-Regular, &apos;Marion Regular&apos;" font-size="39.88" stroke="#001835" stroke-miterlimit="10"><tspan x="0" y="0">А</tspan></text><text transform="translate(162.08 252.77) rotate(-58.87)" fill="#141414" font-family="Marion-Regular, &apos;Marion Regular&apos;" font-size="39.88" stroke="#001835" stroke-miterlimit="10"><tspan x="0" y="0">Л</tspan></text><text transform="translate(181.95 222.06) rotate(-49.51)" fill="#141414" font-family="Marion-Regular, &apos;Marion Regular&apos;" font-size="39.88" stroke="#001835" stroke-miterlimit="10"><tspan x="0" y="0">Ь</tspan></text><text transform="translate(205.02 196.42) rotate(-40)" fill="#141414" font-family="Marion-Regular, &apos;Marion Regular&apos;" font-size="39.88" stroke="#001835" stroke-miterlimit="10"><tspan x="0" y="0">Н</tspan></text><text transform="translate(235.51 172.34) rotate(-30.17)" fill="#141414" font-family="Marion-Regular, &apos;Marion Regular&apos;" font-size="39.88" stroke="#001835" stroke-miterlimit="10"><tspan x="0" y="0">А</tspan></text><text transform="translate(268.3 154.63) rotate(-20.75)" fill="#141414" font-family="Marion-Regular, &apos;Marion Regular&apos;" font-size="39.88" stroke="#001835" stroke-miterlimit="10"><tspan x="0" y="0">Я</tspan></text><text transform="translate(301.22 143.52) rotate(-13.35)" fill="#141414" font-family="Marion-Regular, &apos;Marion Regular&apos;" font-size="39.88" stroke="#001835" stroke-miterlimit="10"><tspan x="0" y="0"> </tspan></text><text transform="translate(322.25 138.88) rotate(-5.65)" fill="#141414" font-family="Marion-Regular, &apos;Marion Regular&apos;" font-size="39.88" stroke="#001835" stroke-miterlimit="10"><tspan x="0" y="0">А</tspan></text><text transform="translate(360.45 136.3) rotate(4.39)" fill="#141414" font-family="Marion-Regular, &apos;Marion Regular&apos;" font-size="39.88" stroke="#001835" stroke-miterlimit="10"><tspan x="0" y="0">Д</tspan></text><text transform="translate(398.22 140.41) rotate(13.79)" fill="#141414" font-family="Marion-Regular, &apos;Marion Regular&apos;" font-size="39.88" stroke="#001835" stroke-miterlimit="10"><tspan x="0" y="0">В</tspan></text><text transform="translate(431.18 149.33) rotate(23.45)" fill="#141414" font-family="Marion-Regular, &apos;Marion Regular&apos;" font-size="39.88" stroke="#001835" stroke-miterlimit="10"><tspan x="0" y="0">О</tspan></text><text transform="translate(467.62 166.61) rotate(33.27)" fill="#141414" font-family="Marion-Regular, &apos;Marion Regular&apos;" font-size="39.88" stroke="#001835" stroke-miterlimit="10"><tspan x="0" y="0">К</tspan></text><text transform="translate(496.07 186.43) rotate(42.73)" fill="#141414" font-family="Marion-Regular, &apos;Marion Regular&apos;" font-size="39.88" stroke="#001835" stroke-miterlimit="10"><tspan x="0" y="0">А</tspan></text><text transform="translate(521.42 211.46) rotate(50.47)" fill="#141414" font-family="Marion-Regular, &apos;Marion Regular&apos;" font-size="39.88" stroke="#001835" stroke-miterlimit="10"><tspan x="0" y="0">Т</tspan></text><text transform="translate(540.56 236.34) rotate(59.91)" fill="#141414" font-family="Marion-Regular, &apos;Marion Regular&apos;" font-size="39.88" stroke="#001835" stroke-miterlimit="10"><tspan x="0" y="0">С</tspan></text><text transform="translate(557.66 268.05) rotate(69.17)" fill="#141414" font-family="Marion-Regular, &apos;Marion Regular&apos;" font-size="39.88" stroke="#001835" stroke-miterlimit="10"><tspan x="0" y="0">К</tspan></text><text transform="translate(569.09 300.81) rotate(78.64)" fill="#141414" font-family="Marion-Regular, &apos;Marion Regular&apos;" font-size="39.88" stroke="#001835" stroke-miterlimit="10"><tspan x="0" y="0">А</tspan></text><text transform="translate(575.28 337.58) rotate(88.01)" fill="#141414" font-family="Marion-Regular, &apos;Marion Regular&apos;" font-size="39.88" stroke="#001835" stroke-miterlimit="10"><tspan x="0" y="0">Я</tspan></text><text transform="translate(575.23 372.34) rotate(95.32)" fill="#141414" font-family="Marion-Regular, &apos;Marion Regular&apos;" font-size="39.88" stroke="#001835" stroke-miterlimit="10"><tspan x="0" y="0"> </tspan></text><text transform="translate(572.86 393.77) rotate(102.81)" fill="#141414" font-family="Marion-Regular, &apos;Marion Regular&apos;" font-size="39.88" stroke="#001835" stroke-miterlimit="10"><tspan x="0" y="0">С</tspan></text><text transform="translate(563.42 429.91) rotate(112.62)" fill="#141414" font-family="Marion-Regular, &apos;Marion Regular&apos;" font-size="39.88" stroke="#001835" stroke-miterlimit="10"><tspan x="0" y="0">Л</tspan></text><text transform="translate(548.29 463.22) rotate(121.83)" fill="#141414" font-family="Marion-Regular, &apos;Marion Regular&apos;" font-size="39.88" stroke="#001835" stroke-miterlimit="10"><tspan x="0" y="0">У</tspan></text><text transform="translate(529.68 491.85) rotate(132.25)" fill="#141414" font-family="Marion-Regular, &apos;Marion Regular&apos;" font-size="39.88" stroke="#001835" stroke-miterlimit="10"><tspan x="0" y="0">Ж</tspan></text><text transform="translate(498.45 523.83) rotate(142.5)" fill="#141414" font-family="Marion-Regular, &apos;Marion Regular&apos;" font-size="39.88" stroke="#001835" stroke-miterlimit="10"><tspan x="0" y="0">Б</tspan></text><text transform="translate(470.6 544.06) rotate(151.77)" fill="#141414" font-family="Marion-Regular, &apos;Marion Regular&apos;" font-size="39.88" stroke="#001835" stroke-miterlimit="10"><tspan x="0" y="0">А</tspan></text><path d="M297.73,610.78c1.32.39,2.62-.07,3.89-.5,2.13-.73,4.92-1.51,7.2-2.4-.72.45-1.4,1-2.08,1.5,0,0,0,.02,0,.03-.82.78-2.13,1.43-3.14,1.93,0,0,0,.02.01.03-1.16.48-3.2,1.85-3.48,3.07-.16.69.32,1.38.69,1.93.89,1.3,3.05,3.72,4.56,5.11.43.83,1.03,1.69,1.85,2.42,0,.01,0,.02,0,.04,1.24.98,3.41,4,5.21,4.71,0,0,0,.02,0,.02.76.5,1.35,1.43,2.18,1.8,0,0,0,0,0,0,.67.41,1.64.98,2.3,1.26,0,0,0,0,0-.01.05.02.11.05.17.06.07.01.14,0,.21,0,0,.01-.02.03-.03.04,4.42-.91,9.79-2.3,14.21-3.66-1.06.63-2.28,1.46-2.97,1.77,0,0,0,.01.01.02-.73.37-1.67,1.2-2.06,1.44,0,.02.02.03.02.04-.66.41-1.37.95-1.87,1.29-.92.46-1.89,1.18-1.79,2.13.11,1.03,1.23,1.91,1.92,2.6,2.01,2,5.02,4.76,7.55,6.1-.02-.06-.04-.12-.06-.18,1.46,1.81,3.16,3.42,5.27,4.64,1.14,1.52,2.55,2.79,4.56,3.31,4.05-1.42,7.85-3.84,11.68-5.75,5.2-2.59,11.52-5.24,16.46-8.3,0,0,0,0,0,0,1.29-.24,3.37-1.73,4.28-2.19.52-.1,1.06-.43,1.49-.65,1.31-.65,2.93-1.72,4.32-2.21,0,0,0,0,0-.01,1.38-.45,2.98-1.17,3.66-2.41-2.37-1.42-5.57-3.17-8.43-3.41,3.54-1.99,7.14-3.9,10.71-5.89,8.3-4.62,17.02-8.26,25.64-12.22l2.71-1.08c.64-.13,1.54-.46,2.18-.7,0,0,0,0,0,.01l.94-.35s.07,0,.1-.01c0,0,0-.02-.01-.02l3.96-1.46c.54-.13,1.07-.41,1.51-.59.85-.24,2.42-.84,3.29-.96,0,0,0-.02-.01-.02.52-.13.86-.71.95-1.26.26-1.55-.18-3.27-.61-4.75-1.35-4.64-4.64-9.51-8.06-12.91-1.17-1.17-2.86-2.12-4.6-2.12-1.93-.62-5.87.87-7.76,1.32-6.18,1.5-12.28,3.5-18.52,4.76-.98.26-1.92.56-2.85.89.58-.25,1.15-.5,1.71-.78,6.25-3.01,12.57-6.61,19.02-9.21,0,0,0-.01,0-.02.75-.27,1.32-.56,1.73-.86l3.19-1.21s0-.01,0-.02c.55-.11,1.18-.45,1.73-.97,1.62-.26,3.61-1.48,5.12-2.09,0,0,0-.02,0-.03.54-.08,1.1-.29,1.49-.7.93-.16,2.56-.73,3.19-1.41.6-.66.51-1.81.36-2.61-.42-2.19-2.43-5.2-4.19-6.67-.35-.72-.96-1.35-1.42-1.99l-1.37-1.02c-.94-1.31-2.68-2.66-4.05-3.17-.95-.57-2.03-1.35-3.13-1.63,0-.01,0-.03,0-.04-1.14-.35-1.96-.61-3.13-.28,0,0,0,.02,0,.03-.47.1-.9.29-1.33.51-1.82-.38-4.43,1.26-6.09,1.88-5.23,1.95-10.45,3.91-15.67,5.88-1.61.61-3.25,1.2-4.84,1.88-.17.07-.34.16-.49.25-2.61.38-6.22,2.2-8.63,3.2-.8.33-1.94.53-2.64,1.08-.99.22-2.23.68-3.54,1.21l1.53-.77.96-.38c.15.02.31-.07.44-.18l.11-.04s-.01-.02-.02-.03c.13-.12.24-.24.3-.25-.97-5.05-3.85-9.44-7.43-13.14-1.31-1.35-3.56-3.31-5.38-4.06-.48-.33-1.04-.57-1.71-.69.09.23.2.45.3.67-.08-.07-.15-.15-.23-.22-.71-.59-1.41-.33-2.08.06-1.66-.22-5.1.37-6.82.81-.96.02-2.02.36-3.13.61-4.62,1.01-9.37,2.25-13.67,4.23-3.21,1.06-6.2,2.62-9.32,3.88-1.6.48-3.26,1.71-4.64,2.47-2,1.1-4.99,2.58-6.88,3.89-.8.25-1.62.95-2.23,1.32-2.33,1.43-4.63,2.89-6.89,4.43-.72.49-2.39,1.25-2.54,2.2-.13.87,1.13,1.31,1.73,1.61,1.96.98,4.64,3.13,6.84,3.31.27.02.53-.01.77-.08-2.96,1.91-5.54,4.2-8.18,6.54-.93.82-2.44,1.75-3.12,2.9,0,0,0,0-.01,0-.42.36-.73.7-.96,1.01l-1.89,1.73s0,.01.01.02c-.48.4-1.05,1.07-1.44,1.38,0,0,.01.02.02.03l-1.16,1.09s.01.01.02.02c-1.98,1.21.04,3.45,1.15,4.85,2.79,3.52,5.79,7.75,9.51,10.38M301.53,607.78c-.07.06-.14.12-.21.18-.08-.07-.16-.14-.24-.21.15.04.3.05.45.03ZM302.52,606.63c.09.02.17.06.26.06.02,0,.03,0,.05,0-.05.04-.09.08-.14.12-.06-.06-.12-.11-.17-.17ZM310.32,573.79s.09-.05.13-.07c-.07.05-.14.1-.21.16.03-.03.05-.06.08-.08ZM346.54,618.11s0,0,0,0c.09-.05.18-.1.27-.15-.01.02-.02.03-.03.05-.08.03-.15.07-.22.1ZM375.14,593.82c-.11.04-.24.09-.35.14.17-.09.34-.18.51-.26-.05.04-.11.08-.16.12ZM370.08,596.51s0,0,0-.01c0,0-.02,0-.03.01.03-.02.06-.03.09-.05-.02.02-.05.03-.07.05ZM378.78,567.34s0,0-.01-.01c.02,0,.04,0,.06-.01-.02,0-.03.02-.05.02ZM368.38,572.85s0,0-.01-.01c.02,0,.04,0,.06-.01-.02,0-.03.02-.05.03ZM366.82,573.68c-.23.12-.46.24-.68.37.23-.13.46-.25.68-.37ZM359.68,571.25c.19-.09.38-.18.54-.27.16-.05.31-.11.47-.17-.34.15-.68.29-1.02.44ZM409.75,571.88c0-.16-.02-.31-.03-.47.01.08.02.15.03.23,0,.06,0,.15,0,.24ZM348.46,551.62c.13.11.26.22.39.34-.31-.1-.69-.08-1.06,0,.24-.12.47-.24.67-.34Z" fill="#001835"/><path d="M349.57,551.97c1.88,1.55,4.34,4.33,4.7,6.78,1.77.88,3.61,3.49,3.87,5.43.92.46,1.22.9,1.38,1.9,1.51.75,2.23,2.81,3.1,4.2l1.88-.94c-.37-1.41-1.31-2.82-2.77-3.26-.12-1.58-1.09-2.81-2.01-4.07-1.59-2.16-3.48-4.1-5.01-6.27-.93-1.32-1.27-3.07-2.58-4.15-.88-.73-1.75-.12-2.56.38Z" fill="#d8d9d9"/><path d="M352.06,551.16c1.48,3.82,4.46,6.78,6.84,10.04,1.09,1.49,2.56,3.03,2.84,4.88,1.27.63,1.71,2.23,2.45,3.39l1.7-.68c-2.24-4.63-6.09-8.82-9.07-13.02-1.35-1.91-2.23-4.17-4.76-4.61Z" fill="#cdcece"/><path d="M343.07,552.55c.43.67.25,1.52,1.07,1.53,1.8.03,5.03-1.74,6.26-2.38-1.58-.37-5.78.39-7.33.85Z" fill="#aaabab"/><path d="M327.17,557.13c.53,1.24.55,4.83,1.98,5.21,1.28.34,4.71-2.17,5.76-2.77,3.59-2.02,7.23-4.13,11.06-5.7-1.35-2.22-3.33-1.33-5.53-.85-4.49.98-9.1,2.19-13.27,4.1Z" fill="#b7b8b9"/><path d="M347.92,552.69c3.62,4.14,7,8.85,10.08,13.39.8,1.18.58,4.13,1.81,4.92.56.36,2.3-.63,3.06-.78-.42-1.58-1.71-3.65-3.36-4.14-.08-1.07-.31-1.58-1.38-1.9-.13-1.94-1.91-4.84-3.87-5.43-.13-1.78-1.39-3.2-2.41-4.61-.47-.65-.97-1.44-1.76-1.73-.63-.23-1.55.14-2.17.28Z" fill="#e6e6e6"/><path d="M353.58,551.77c.52,1.86,3.09,4.08,4.24,5.63,1.72,2.31,3.26,4.74,4.99,7.05.84,1.13,1.38,3.18,2.24,4.35.43.59.95-.27,1.11-.29-.94-4.9-3.74-9.17-7.21-12.75-1.3-1.35-3.57-3.32-5.36-4Z" fill="#c5c6c6"/><path d="M345.73,553.79c3.63,4.39,7.53,8.75,10.83,13.37.79,1.12-.64,2.2,1.98,4.43.49.42,2.14-.54,2.92-.9-3.01-4.79-6.76-9.12-9.89-13.84-.84-1.26-1.36-3.72-2.67-4.25-.78-.32-2.14.82-3.18,1.18Z" fill="#f7f7f7"/><path d="M359.8,571.5c-2.86-4.64-6.27-9.35-9.65-13.64-.87-1.1-1.98-3.64-3.4-4.07-1.16-.35-2.83.88-3.82,1.37-3.1,1.52-6.11,3.19-9.12,4.87-6.87,3.83-13.51,8.14-19.91,12.67-2.97,2.11-5.76,4.61-8.85,6.54-3.03,1.9-5.62,4.22-8.3,6.59-1.02.91-2.79,1.95-3.25,3.29-.36,1.07,1.57,2.94,2.14,3.81,2.16,3.24,4.47,6.33,6.75,9.5.64.88,1.68,3.05,2.95,3.09,1.44.04,3.33-2.05,4.4-2.87,3.53-2.72,7.18-5.29,10.78-7.91,12.14-8.81,25.24-17.59,39.26-23.23Z" fill="#fefefe"/><path d="M404.87,554.68c1.08,4.28,1.1,8.91,1.41,13.29.23,3.27-.2,6.93-.2,10.21l4.04-1.53c-1.08-2.5-.89-5.47-1.15-8.14-.44-4.51-1.06-9.03-1.06-13.56-1.1-.34-1.91-.59-3.04-.27Z" fill="#054e91"/><path d="M403.76,555.23c-1.77-.51-4.42,1.18-6.08,1.8-5.07,1.89-10.14,3.8-15.21,5.7-1.57.59-3.16,1.16-4.7,1.83-.69.3-1.3.7-1.03,1.53.99,3.06,5.14-.05,6.83-.88,6.73-3.3,13.53-6.54,20.18-9.97Z" fill="#9fa2a7"/><path d="M402.38,555.77c1.2,2.12.94,5.22,1.13,7.6.41,5.04.75,10.46,1.3,15.49,5.31-1.65,2.29-3.95,1.96-6.26-.5-3.51-.5-7.06-.84-10.58-.03-2.25-.34-4.78-.83-7.35-.99.12-1.79.79-2.72,1.11Z" fill="#01549f"/><path d="M407.7,554.94c0,5.36.76,11.24,1.48,16.56.1.72-.76,3.56-.24,4.72.37.83,1.89.48,2.95-.61,1.02-1.04.22-4.16.05-5.47-.38-2.87-.53-5.8-.74-8.68-.12-1.63-.44-3.24-.25-4.88-.99-.59-2.11-1.42-3.25-1.64Z" fill="#084a86"/><path d="M405.36,578.68c-.63-2.58-.84-5.09-1.09-7.72-.48-4.94-.83-10.42-.93-15.38-2.85.29-6.18,2.9-8.72,4.16-5.7,2.81-11.5,5.44-17.12,8.43-14.28,7.58-28.52,15.15-42.31,23.57-5.76,3.52-12.09,6.79-17.39,10.98-1.68,1.33-1.24,4.07-.98,5.96.69,4.95.82,9.96,1.42,14.92.18,1.51.29,3.1.35,4.61.02.5-.06,1.54.64,1.65.69.11,1.38-.65,1.85-1.03l3.87-3.12c5.23-4.23,10.76-8.14,16.31-11.95,12.39-8.49,25.56-16.38,38.99-23.19,2.17-1.1,4.45-1.89,6.64-2.95,6.06-2.93,12.2-6.41,18.46-8.94Z" fill="#0056a4"/><path d="M410.67,556.47c.61,6.21.16,13.17,1.1,19.23,1.58-.24,3.52-1.44,4.99-2.03-.74-3.03-.76-6.39-1.06-9.5-.12-1.22.15-2.65-.39-3.8-.71-1.53-3.04-3.43-4.64-3.91Z" fill="#0c4477"/><path d="M318.05,560.92c.75,1.56,1.89,2.94,2.91,4.34.38.53.04,1.9.75,2.01.95.14,2.8-1.45,3.53-1.92,1.8-1.17,3.64-2.32,5.53-3.35-1.3-1.56-2.52-3.17-3.59-4.88-3.14,1.04-6.07,2.57-9.12,3.8Z" fill="#bfc0c2"/><path d="M414.86,559.65c.54,4.16,1.27,9.85,1.67,14.03.75-.07,1.64-.39,1.99-1.17.36-.78-.01-1.83-.09-2.64-.21-2.18.03-4.99-.74-7.05-.3-.81-1-1.47-1.49-2.17l-1.35-1Z" fill="#103e69"/><path d="M306.89,567.1c1.4,2.42,4.52,4,5.63,6.57,3.55-1.73,6.48-4.61,9.95-6.51-1.3-2.04-2.56-4.33-3.77-6.42-1.72.3-3.57,1.71-5.08,2.54-1.96,1.08-4.9,2.53-6.73,3.81Z" fill="#c3c4c6"/><path d="M417.43,562.45c.03,3.18.53,7.37.66,10.54.88-.13,2.57-.71,3.2-1.39.59-.64.5-1.75.35-2.54-.42-2.19-2.48-5.23-4.21-6.61Z" fill="#14395c"/><path d="M379.14,567.36c-.73-.87-1.3-1.56-1.82-2.57-2.53.37-6.04,2.13-8.4,3.11-.81.34-2,.53-2.66,1.12-1.07.96,1,3.58,2.13,3.7,1.04.1,2.15-.82,3.02-1.27,2.28-1.18,5.33-2.84,7.73-4.08Z" fill="#9d9e9e"/><path d="M307.51,566.97c-.93-.04-2,.92-2.74,1.38-2.26,1.39-4.5,2.81-6.68,4.3-.7.48-2.32,1.21-2.46,2.13-.13.85,1.09,1.27,1.68,1.57,1.9.95,4.5,3.04,6.64,3.22.99.08,1.75-.56,2.49-1.12l4.15-3.14c.62-.47,2.55-1.72,2.57-2.6.03-1.11-2.11-1.7-2.71-2.56-.62-.89-1.67-3.12-2.93-3.17Z" fill="#c0c1c3"/><path d="M356.84,572.7c.21.7,1.77.63,2.18,1.24.5.76,1.23,2.26,2.2,2.49.81.19,1.77-.46,2.44-.83,1.55-.84,3.76-2.19,5.39-2.88-1-1.21-1.9-2.43-2.69-3.78-2.6.59-7.05,2.81-9.53,3.75Z" fill="#919597"/><path d="M350.67,575.57c1.14,1.6,2.26,3.58,3.23,5.29,2.51-.44,6.22-3.23,8.4-4.48-.65-1.14-3.12-3.5-4.5-3.84-.72-.18-1.53.36-2.15.63-1.7.73-3.31,1.6-4.98,2.4Z" fill="#848b91"/><path d="M343.39,586.88c3.69-1.52,7.48-4.6,11.15-6.15-.8-1.07-1.55-2.17-2.33-3.25-.35-.48-.43-1.74-1.05-1.92-.78-.23-2.18.86-2.82,1.21-1.76.98-4.25,2.38-5.98,3.4-.6.36-.69.44-.91,1.16-.47,1.52,1.44,4.12,1.93,5.55Z" fill="#737e88"/><path d="M411.57,582.06c1.95,2.63,4.25,5.07,5.9,7.89l3.2,5.43,1.73,2.98c.56.96,1.36,3.21,2.48,3.62.85.31,1.39-.47,1.51-1.18.25-1.5-.18-3.17-.59-4.61-1.31-4.5-4.5-9.23-7.83-12.53-1.58-1.57-4.1-2.77-6.41-1.6Z" fill="#bd1c28"/><path d="M335.29,584.54c.64,1.91,1.89,3.72,2.69,5.57,1.46-.6,3.35-1.83,4.67-2.68.58-.38,1.32-.78,1.23-1.57-.2-1.64-.96-4.1-1.5-5.69-2.05.74-5.26,3.2-7.08,4.37Z" fill="#7b848d"/><path d="M388,587.51c.6,1.56,1.53,3.09,2.25,4.6,2.78-.79,5.67-2.72,8.25-3.99,4.72-2.31,10.24-4.51,15.11-6.49-1.83-.69-5.78.81-7.64,1.26-6,1.46-11.92,3.4-17.97,4.62Z" fill="#ab1724"/><path d="M409.84,582.63c2.18,1.87,3.44,4.88,4.86,7.32,2.52,4.34,5.02,8.71,7.59,13.02.83-.23,2.35-.82,3.2-.93-2.21-5.18-6.43-9.67-9.28-14.53l-2.25-3.8c-.32-.54-.63-1.28-1.21-1.61-.84-.47-2.07.29-2.9.52Z" fill="#c81d2a"/><path d="M406.69,584.17c2.82,5.25,7,9.85,9.99,15.01.65,1.12,1.83,4.01,3.18,4.4.78.22,1.74-.3,2.43-.6-1.97-4.65-5.05-8.92-7.59-13.29-1.08-1.87-1.49-5.64-3.19-7.02-.95-.77-3.87,1.12-4.82,1.5Z" fill="#d31e2c"/><path d="M404.59,585.07c1.97,1.81,3.07,4.52,4.43,6.78,2.53,4.22,5.04,8.96,6.97,13.48l4.94-1.82c-2.58-4.8-6.76-8.85-9.5-13.56-.79-1.36-1.61-2.71-2.41-4.07-.32-.54-.64-1.29-1.21-1.61-.96-.53-2.33.44-3.21.79Z" fill="#d91f2d"/><path d="M335.74,591.31c.82-.29,2.3-.78,2.56-1.72.37-1.35-1.93-4.21-2.68-5.24-.82.31-2.37,1.02-2.69,1.93-.47,1.35,2.11,3.94,2.81,5.03Z" fill="#858b92"/><path d="M401.06,586.79c1.66,1.52,4.46,2.6,5.54,4.51,1.75,3.11,3.63,6.14,5.42,9.22,1.19,2.04,2.14,4.94,4.98,4.46-2.28-5.38-6.13-10.26-9.09-15.31-.66-1.12-1.21-4.19-2.52-4.68-.69-.26-3.69,1.56-4.33,1.79Z" fill="#e3202e"/><path d="M399.52,587.57c1.62,1.58,4.02,2.9,5.14,4.82,1.82,3.09,3.62,6.2,5.54,9.22.69,1.09,1.73,4,3.05,4.41.58.18,2.79-.76,3.33-.93-2.74-5.05-7.43-9.28-10.15-14.34-.66-1.24-1.74-4.18-3.28-4.51-.73-.16-2.97,1.09-3.63,1.32Z" fill="#ea202f"/><path d="M329.49,588.53c.93,1.59,1.25,3.9,2.08,5.54,1.16-.54,3.76-2.31,4.85-2.97-.57-1.89-2.93-3.27-3.29-5.18-1.42.53-2.62,1.5-3.64,2.6Z" fill="#8d9296"/><path d="M398.46,588.01c1.97,2.38,4.27,4.71,5.82,7.37,2.28,3.91,4.62,7.79,6.95,11.67l2.71-1.07c-2.03-4.38-5.69-8.12-8.25-12.22-1.34-2.15-2.94-4.42-3.85-6.78-.9.05-2.53.74-3.37,1.04Z" fill="#ef2130"/><path d="M378.1,598.69c4.21-1.72,8.26-4.68,12.39-6.57-.34-1.74-1.62-3.09-2.49-4.61-3.57.94-6.75,2.41-9.95,4.18-.78.43-2.86,1.1-2.97,2.11-.17,1.53,2.25,3.67,3.02,4.88Z" fill="#aa1724"/><path d="M411.23,607.04c-2.13-5-5.64-9.66-8.37-14.38-.7-1.21-1.85-4.25-3.29-4.69-1.1-.33-2.61.77-3.54,1.23-2.88,1.41-5.71,2.91-8.57,4.34-9.94,4.96-19.51,10.59-29.03,16.27-2.61,1.56-5.2,3.17-7.74,4.83-.8.52-2.28,1.13-2.73,2-.57,1.12,1.11,3.04,1.66,3.97,2.15,3.61,4.31,7.22,6.42,10.85.53.92,1.45,4.58,2.76,4.48.96-.07,2.21-1.75,2.95-2.28,1.83-1.28,3.67-2.54,5.53-3.78,6.13-4.09,12.64-7.39,19.08-10.98,8.05-4.49,16.52-8.02,24.89-11.86Z" fill="#f62131"/><path d="M328.28,595.92c1.04-.39,3.71-1.5,3.86-2.74.16-1.29-1.14-3.37-2.04-4.15.33-.32-.17-.66-.04-1.04-1.09.45-4.37,2.25-4.31,3.62.06,1.41,1.85,3.1,2.54,4.32Z" fill="#95989a"/><path d="M293.72,588.64c-3.12,2.69-.34,4.01.63,5.65,1.67,2.83,4.15,5.13,5.9,7.87.82,1.28,1.79,3.6,3.23,4.32.74.37,1.49-.18,2.12-.52-1.62-1.38-2.71-3.17-3.96-4.86-1.42-1.92-2.98-3.78-4.31-5.75-1.39-2.06-1.58-5.16-3.61-6.71Z" fill="#f3f3f3"/><path d="M292.85,589.57l-1.91,1.74c2.9,4.32,6.02,8.55,9.09,12.75.87,1.2,2.27,4.3,3.91,2.71-1.7-1.38-2.64-3.39-3.87-5.14-1.57-2.22-3.42-4.29-5.01-6.52-1.1-1.55-.86-4.17-2.21-5.54Z" fill="#e6e7e7"/><path d="M314.72,604.9c1.61-.6,3.84-2.53,5.26-3.46,2.72-1.78,5.61-4,8.47-5.57-.44-1.82-1.44-3.47-2.36-5.09-3.36,1.39-7.07,4.8-9.98,6.94-.9.66-2.84,1.61-2.99,2.82-.17,1.34.87,3.41,1.6,4.36Z" fill="#9fa2a7"/><path d="M289.57,592.66c3.25,5.73,8.08,10.55,11.34,16.28.84-.22,1.47-.63,2.21-1.09-3.27-3.96-6.07-8.31-9.05-12.48-.88-1.24-1.23-4.21-2.51-4.37-.44-.05-1.43,1.21-1.99,1.65Z" fill="#d8d8d8"/><path d="M289.68,592.6l-1.22,1.15c3.04,4,5.86,8.14,8.81,12.21.58.81,1.77,3.83,3.03,3.56.73-.16.51-.93.28-1.39-.53-1.06-1.39-1.99-2.04-2.98-1.69-2.6-3.65-5.07-5.46-7.6-1.1-1.54-1.99-3.67-3.41-4.95Z" fill="#cbcccc"/><path d="M368.65,597.28c.91,1.61,1.46,3.53,2.29,5.17,2.36-.68,5.11-2.88,7.39-3.81-.55-2.08-2.28-3.51-2.68-5.63-2.21.79-5.35,2.63-7,4.27Z" fill="#9c1923"/><path d="M298.97,608.67c-.56-1.73-1.83-3.12-2.86-4.61-2.32-3.37-5.24-6.96-7.42-10.42-2.3,1.14-.23,3.43.89,4.84,2.75,3.46,5.7,7.64,9.38,10.19Z" fill="#c5c6c6"/><path d="M362.85,607.3c1.98-1.03,4.68-2.77,6.62-3.86.64-.36,1.8-.81,1.98-1.61.3-1.3-.72-4.07-1.62-4.87.33-.32.71-.94.84-1.33-2.35.84-6.06,3.24-8.2,4.5-.67.4-1.95,1.11-1.9,2.05.05.81.87,1.41,1.39,1.95.76.79.49,2.15.88,3.16Z" fill="#891b23"/><path d="M313.44,599.9c-.71.3-1.69,1.02-2.31,1.48-.48.36-1.1.77-1.34,1.34-.42,1.02,1.09,3.36,2.19,3.47.73.08,1.61-.55,2.18-.93.43-.29,1.05-.68,1.13-1.24.18-1.25-1.69-2.74-1.86-4.12Z" fill="#a2a8b4"/><path d="M350.12,607.86c1.02.68,1.68,1.46,2.41,2.44.44.6.96,1.5,1.76,1.67.77.16,1.57-.44,2.19-.81,1.76-1.05,3.51-2.12,5.25-3.19.65-.4,1.74-.87,1.71-1.77-.07-1.61-.99-4.14-1.77-5.46-3.55,1.41-8.43,5.09-11.55,7.11Z" fill="#881a24"/><path d="M300.07,609.76c1.28.38,2.91-.33,4.15-.76,2.47-.85,5.85-1.76,8.23-2.84l-2.49-3.68c-3.51,1.46-6.66,5.3-9.88,7.28Z" fill="#a4adbf"/><path d="M316.66,628.48c.64.4,1.72,1.03,2.41,1.33,0-6.05-1.46-12.39-1.88-18.42-.19-2.65-.13-5.63.52-8.28-2.85,1.1-2.52,4.79-2.23,7.2.17,1.44-.05,2.9.11,4.34.51,4.45,1.58,9.32,1.07,13.84Z" fill="#02539d"/><path d="M312.79,605.96c1.19,4.14,1.11,8.75,1.41,13.02.18,2.62.67,5.23.53,7.87.74.49,1.31,1.38,2.12,1.75.17-4.01-.32-8.18-.77-12.06-.44-3.83,1.03-8.6.42-12.61-.78.29-2.97,1.64-3.7,2.03Z" fill="#064e91"/><path d="M309.2,608.13c.54,2.87.59,5.78.88,8.68.19,1.99-.03,3.46-.4,5.45,1.38,1.09,3.92,4.74,5.76,4.71-.74-3.06-1.07-7.31-1.29-10.43-.24-3.44-.55-7.22-.99-10.64-1.54.24-2.74,1.32-3.96,2.23Z" fill="#094984"/><path d="M309.28,608.08c-.79.79-2.12,1.44-3.13,1.94,1.24,2.88.05,6.16,1.44,9.28.52,1.15,1.36,2.51,2.71,3.44-.03-3.07-.11-6.65-.33-9.72-.11-1.56.23-3.62-.69-4.95Z" fill="#0d4477"/><path d="M341.45,613.54c.95,1.04,3.53,2.95,4.88,3.35.82.25,1.75-.45,2.41-.84,1.96-1.17,4.55-3.19,6.58-4.24-1.01-1.14-2.57-3.55-4.01-4.1-.95-.36-2.36.94-3.12,1.42-1.86,1.18-4.9,3.2-6.73,4.41Z" fill="#9e1925"/><path d="M308.22,620.18c-.11-2.63-1.14-7.68-1.9-10.19-1.09.41-3.24,1.81-3.53,3.05-.16.67.31,1.34.67,1.87.93,1.36,3.29,3.99,4.76,5.27Z" fill="#133a60"/><path d="M329.66,621.96c.66,1.16,1.9,3.82,3.34,4.12,1.26.25,2.9-1.48,3.85-2.12,3.27-2.21,7.75-5.23,11.22-7.13-1.17-1.06-3.57-3.25-5.15-3.61-1.17-.27-2.69,1.19-3.58,1.79-3.3,2.2-6.55,4.53-9.68,6.96Z" fill="#ad1825"/><path d="M358.69,635.8c-2.52-4.7-5.4-9.24-8.1-13.84-1-1.7-1.65-3.71-2.44-5.51-2.77,1.08-1.71,3.4-.59,5.24,2.28,3.77,4.18,7.88,6.4,11.68.51.88,1.35,3.62,2.45,3.84.71.14,1.77-1.04,2.28-1.41Z" fill="#f22030"/><path d="M357.03,637.16c-3.18-3.95-5.51-8.92-8.05-13.29-1.03-1.78-1.7-4.51-1.87-6.57-1.01.38-3.83,1.75-3.66,3.06.17,1.35,1.53,2.89,2.21,4.06l5.57,9.5c.72,1.24,1.4,4.24,2.64,5.02.96.6,2.43-1.25,3.16-1.76Z" fill="#ed1f2e"/><path d="M354.54,639.06c-2.64-4.31-5.13-8.7-7.76-13.02-1.15-1.89-2.69-4.56-2.82-6.78-.93.39-2.58,1.26-2.36,2.44.32,1.75,1.97,3.63,2.87,5.15,1.71,2.89,3.17,5.91,4.86,8.81.73,1.25,1.41,3.55,2.45,4.56.86.83,1.97-.63,2.75-1.16Z" fill="#e51d2c"/><path d="M352.88,640.41c-3.31-4.02-5.63-9.09-8.25-13.56-1.03-1.75-2.03-4.47-2.17-6.53-1.04.39-3.6,1.66-3.44,3,.18,1.47,1.63,3.07,2.37,4.34,1.9,3.26,3.83,6.5,5.73,9.77.67,1.15,1.33,4.21,2.59,4.81.99.47,2.43-1.33,3.17-1.83Z" fill="#e01c2b"/><path d="M319.42,629.89c4.56-.94,10.18-2.4,14.61-3.8-.85-.96-2.41-1.47-3.17-2.5-.31-.42-.03-1.6-.61-1.69-.95-.14-2.68,1.65-3.36,2.17-2.28,1.79-6.09,3.26-7.47,5.81Z" fill="#ae1825"/><path d="M336.29,624.14c.48,1.86,1.73,3.5,2.69,5.15,1.84,3.18,3.75,6.32,5.61,9.5.73,1.25,1.64,4.65,3.01,5.27,1.07.48,2.26-1.31,2.79-2.02-1.49-1.24-2.32-3.23-3.28-4.88-1.79-3.08-3.66-6.12-5.42-9.22-.96-1.68-1.81-3.97-1.92-5.94-1,.41-2.58,1.54-3.48,2.14Z" fill="#d81a29"/><path d="M375.7,624.6c1.25,2.16,3.47,3.52,4.56,5.78,1.4-.43,3.16-1.14,3.87-2.44-2.37-1.42-5.59-3.19-8.43-3.34Z" fill="#b11926"/><path d="M348.18,643.94c-1.97-1.65-3.1-4.59-4.38-6.78-2.49-4.25-4.83-8.75-7.17-13.08-.93.39-2.48,1.32-2.35,2.51.17,1.53,1.73,3.29,2.51,4.61,1.91,3.26,3.79,6.53,5.75,9.77.73,1.21,1.53,4.39,2.88,5.01,1.11.51,2.23-1.28,2.78-2.02Z" fill="#d51a28"/><path d="M368.97,628.61c1.08,1.22,3.09,1.8,4.04,3.12.37.51.76,1.25,1.46,1.35.65.09,1.36-.38,1.91-.65,1.27-.63,2.85-1.67,4.19-2.15-.35-1.76-1.95-2.83-3.01-4.25-.43-.57-.94-1.43-1.76-1.43-.69,0-1.36.54-1.91.89-1.29.82-3.65,2.28-4.93,3.12Z" fill="#a91723"/><path d="M330.34,628.06c3.77,7.03,9.94,13.46,13.15,20.76,1.19-.55,1.73-1.93,2.49-2.98-2.03-1.65-3.29-4.8-4.57-7.05-2.36-4.15-5.11-8.7-6.79-13.15-1.06.36-3.25,1.97-4.27,2.43Z" fill="#cc1826"/><path d="M328.34,629.48c2.11,4.81,6.14,8.56,8.78,13.11,1.51,2.6,3.14,5.41,6.36,6.24-.61-2.06-1.98-3.84-3.04-5.7-2.08-3.64-4.19-7.27-6.38-10.85-.66-1.08-1.28-2.18-1.96-3.25-.27-.42-.56-1.02-1.12-1.11-.66-.1-2.13,1.25-2.64,1.56Z" fill="#c51724"/><path d="M365.39,631.01c.95,1.15,2.6,1.69,3.48,2.89.37.51.76,1.23,1.46,1.31,1.16.14,3.62-1.66,4.62-2.16-.56-1.49-2.32-2.24-3.31-3.49-.41-.52-.89-1.16-1.63-1.2-1.28-.06-3.58,2.02-4.63,2.64Z" fill="#9e1520"/><path d="M326.32,630.92c.79,1.81,2.83,2.62,3.8,4.34,2.29,4.04,4.83,8.04,9.07,10.45-.6-2.06-2.61-4.27-3.7-6.11-2.06-3.47-4.39-6.94-6.12-10.58-.83.21-2.33,1.45-3.06,1.9Z" fill="#c11623"/><path d="M334,641.29c-1.12-3.79-4.85-7.36-6.56-10.91-.97.37-2.77,1.2-2.64,2.47.1,1,1.19,1.86,1.86,2.52,1.95,1.94,4.88,4.62,7.33,5.92Z" fill="#b81421"/><path d="M343.48,648.82c3.93-1.38,7.62-3.72,11.34-5.58,5.05-2.52,11.18-5.09,15.97-8.05-.68-1.25-2.88-3.99-4.41-4.32-.68-.15-1.36.35-1.89.69-1.42.9-2.77,1.92-4.15,2.89-4.12,2.88-8.08,6.03-11.89,9.3-1.73,1.49-3.99,3-4.98,5.08Z" fill="#8f121c"/><path d="M251.52,189.44c31.34-19.71,67.37-30.1,104.64-30.1s73.3,10.39,104.64,30.1l7.84.34c-33.28-22.53-72.17-34.44-112.48-34.44s-79.2,11.91-112.48,34.44" fill="#001835"/></svg>