<svg width="0" height="0" class="hidden">
  <symbol xmlns="http://www.w3.org/2000/svg" xmlns:xlink="http://www.w3.org/1999/xlink" viewBox="0 0 17 28" id="ic_arr_hor">
    <path fill-rule="evenodd" fill="currentColor" d="M11.902,27.329 L0.631,16.064 C0.204,15.613 -0.010,15.087 -0.010,14.485 C-0.010,13.874 0.204,13.354 0.631,12.927 L11.902,1.642 C12.340,1.203 12.865,0.984 13.477,0.984 C14.100,0.984 14.620,1.205 15.035,1.642 L16.334,2.942 C16.772,3.359 16.992,3.879 16.992,4.502 C16.992,5.127 16.772,5.648 16.334,6.064 L7.936,14.485 L16.333,22.911 C16.772,23.326 16.992,23.846 16.992,24.471 C16.992,25.084 16.772,25.608 16.333,26.048 L15.035,27.347 C14.608,27.776 14.088,27.990 13.477,27.990 C12.865,27.990 12.340,27.769 11.902,27.329 Z"></path>
  </symbol>
  <symbol xmlns="http://www.w3.org/2000/svg" xmlns:xlink="http://www.w3.org/1999/xlink" x="0px" y="0px" xml:space="preserve" viewBox="0 0 512.011 512.011" id="ic_arr_ver">
    <path d="M505.755,123.592c-8.341-8.341-21.824-8.341-30.165,0L256.005,343.176L36.421,123.592c-8.341-8.341-21.824-8.341-30.165,0
			s-8.341,21.824,0,30.165l234.667,234.667c4.16,4.16,9.621,6.251,15.083,6.251c5.462,0,10.923-2.091,15.083-6.251l234.667-234.667
			C514.096,145.416,514.096,131.933,505.755,123.592z" fill="currentColor"></path>
  </symbol>
  <symbol xmlns="http://www.w3.org/2000/svg" xmlns:xlink="http://www.w3.org/1999/xlink" viewBox="0 0 21px 16px" id="ic_email">
    <path fill-rule="evenodd" fill="currentColor" d="M19.250,-0.000 L1.750,-0.000 C0.785,-0.000 -0.000,0.796 -0.000,1.777 L-0.000,14.221 C-0.000,15.201 0.785,15.999 1.750,15.999 L19.250,15.999 C20.215,15.999 20.1000,15.201 20.1000,14.221 L20.1000,1.777 C20.1000,0.796 20.215,-0.000 19.250,-0.000 ZM1.750,0.888 L19.250,0.888 C19.314,0.888 19.371,0.912 19.432,0.925 C17.917,2.334 12.893,7.002 11.135,8.612 C10.997,8.738 10.775,8.888 10.500,8.888 C10.224,8.888 10.003,8.738 9.865,8.612 C8.107,7.002 3.083,2.334 1.568,0.925 C1.628,0.912 1.685,0.888 1.750,0.888 ZM0.875,14.221 L0.875,1.777 C0.875,1.690 0.901,1.610 0.924,1.531 C2.083,2.609 5.589,5.867 7.862,7.967 C5.596,9.944 2.090,13.321 0.921,14.453 C0.900,14.377 0.875,14.303 0.875,14.221 ZM19.250,15.110 L1.750,15.110 C1.680,15.110 1.618,15.085 1.553,15.069 C2.760,13.900 6.289,10.503 8.515,8.569 C8.805,8.836 9.070,9.080 9.279,9.271 C9.639,9.602 10.061,9.777 10.500,9.777 C10.938,9.777 11.360,9.602 11.721,9.272 C11.929,9.081 12.195,8.836 12.485,8.569 C14.711,10.503 18.239,13.899 19.447,15.069 C19.382,15.085 19.320,15.110 19.250,15.110 ZM20.125,14.221 C20.125,14.303 20.099,14.377 20.079,14.453 C18.909,13.320 15.404,9.944 13.138,7.967 C15.411,5.867 18.916,2.609 20.076,1.531 C20.099,1.610 20.125,1.690 20.125,1.777 L20.125,14.221 Z"></path>
  </symbol>
  <symbol xmlns="http://www.w3.org/2000/svg" xmlns:xlink="http://www.w3.org/1999/xlink" viewBox="0 0 16 16" id="ic_phone">
    <path fill-rule="evenodd" fill="currentColor" d="M15.638,12.659 L13.168,10.181 C12.676,9.690 11.861,9.706 11.352,10.215 L10.108,11.463 C10.029,11.420 9.948,11.373 9.862,11.326 C9.077,10.890 8.001,10.291 6.869,9.155 C5.734,8.018 5.136,6.937 4.700,6.150 C4.653,6.066 4.609,5.986 4.566,5.909 L5.401,5.073 L5.811,4.661 C6.322,4.149 6.336,3.333 5.845,2.840 L3.374,0.364 C2.884,-0.129 2.068,-0.113 1.558,0.397 L0.862,1.099 L0.881,1.119 C0.648,1.416 0.453,1.761 0.308,2.133 C0.174,2.486 0.091,2.824 0.052,3.162 C-0.274,5.872 0.962,8.349 4.315,11.711 C8.951,16.359 12.686,16.008 12.848,15.991 C13.199,15.949 13.535,15.864 13.877,15.732 C14.244,15.586 14.588,15.393 14.885,15.159 L14.900,15.172 L15.605,14.480 C16.115,13.969 16.129,13.151 15.638,12.659 Z"></path>
  </symbol>
  <symbol xmlns="http://www.w3.org/2000/svg" xmlns:xlink="http://www.w3.org/1999/xlink" viewBox="0 0 20 20" id="ic_time">
    <path fill-rule="evenodd" fill="currentColor" d="M9.1000,19.998 C4.486,19.998 -0.000,15.513 -0.000,9.999 C-0.000,4.484 4.486,-0.001 9.1000,-0.001 C15.514,-0.001 19.1000,4.484 19.1000,9.999 C19.1000,15.513 15.514,19.998 9.1000,19.998 ZM9.1000,1.458 C5.291,1.458 1.460,5.290 1.460,9.999 C1.460,14.708 5.291,18.539 9.1000,18.539 C14.709,18.539 18.540,14.708 18.540,9.999 C18.540,5.290 14.709,1.458 9.1000,1.458 ZM13.406,11.458 L9.513,11.458 C9.110,11.458 8.783,11.132 8.783,10.729 L8.783,5.619 C8.783,5.216 9.110,4.889 9.513,4.889 C9.916,4.889 10.243,5.216 10.243,5.619 L10.243,9.999 L13.406,9.999 C13.809,9.999 14.136,10.325 14.136,10.729 C14.136,11.132 13.809,11.458 13.406,11.458 Z"></path>
  </symbol>
</svg>